/* XPM */
static char *_11520816215409692603f7fda199ea4NifXNu3OedwzjfVL[] = {
/* columns rows colors chars-per-pixel */
"64 64 7 1 ",
"  c black",
". c #464646",
"X c gray34",
"o c gray49",
"O c #75A014",
"+ c #A8E61D",
"@ c #B4B4B4",
/* pixels */
".               ..               ..           ..               .",
" @@@@@@@@@@@@@@o  @@@@@@@@@@@@@@o  @@@@@@@@@@o  @@@@@@@@@@@@@@o ",
" @@@@@@@@@@@@@@o  @@@@@@@@@@@@@@o  @@@@@@@@@@o  @@@@@@@@@@@@@@o ",
" @@@@@@@@@@@@@@o  @@@@@@@@@@@@@@o  @@@@@@@@@@o  @@@@@@@@@@@@@@o ",
" @@@@@@@@@@@@@@o  @@@@@@@@@@@@@@o  @@@@@@@@@@o  @@@@@@@@@@@@@@o ",
" @@@@@@@@@@@@@@o  @@@@@@@@@@@@@@o  @@@@@@@@@@o  ooooooooooooooo ",
" @@@@@@@@@@@@@@o  @@@@@@@@@@@@@@o  @@@@@@@@@@o .               .",
" ooooooooooooooo  ooooooooooooooo  @@@@@@@@@@o ..       ........",
".               ..               . @@@@@@@@@@o . @@@@@@o .......",
"       ..                   .    . @@@@@@@@@@o . @@@@@@o .      ",
"@@@@@@o  @@@@@@@@@@@@@@@@@o  @@@o  ooooooooooo . @@@@@@o  @@@@@@",
"@@@@@@o  @@@@@@@@@@@@@@@@@o  @@@o .           .. @@@@@@o  @@@@@@",
"@@@@@@o  @@@@@@@@@@@@@@@@@o  @@@o              . @@@@@@o  @@@@@@",
"@@@@@@o  @@@@@@@@@@@@@@@@@o  @@@o  @@@@@@@@@@@o  @@@@@@o  @@@@@@",
"@@@@@@o  @@@@@@@@@@@@@@@@@o  @@@o  @@@@@@@@@@@o  @@@@@@o  @@@@@@",
"@@@@@@o  @@@@@@@@@@@@@@@@@o  @@@o  @@@@@@@@@@@o  @@@@@@o  @@@@@@",
"ooooooo  oooooooooooooooooo  @@@o  @@@@@@@@@@@o  @@@@@@o  oooooo",
"       ..                    @@@o  @@@@@@@@@@@o  ooooooo .      ",
".             ..           . @@@o  @@@@@@@@@@@o .       ........",
" @@@@@@@@@@@@@  @@@@@@@@@@@  @@@o  @@@@@@@@@@@o .               ",
" @@@@@@@@@@@@@  @@@@@@@@@@@  oooo  oooooooooooo  @@@@@@@@@@@@@o ",
" @@@@@@@@@@@@@  @@@@@@@@@@@ .    ..            . @@@@@@@@@@@@@o ",
" @@@@@@@@@@@@@  @@@@@@@@@@@ .         ..       . @@@@@@@@@@@@@o ",
" @@@@@@@@@@@@@  @@@@@@@@@@@  @@@@@@@@o  @@@@@@o  @@@@@@@@@@@@@o ",
" @@@@@@@@@@@@@  @@@@@@@@@@@  @@@@@@@@o  @@@@@@o  @@@@@@@@@@@@@o ",
" @@@@@@@@@@@@@  @@@@@@@@@@@  @@@@@@@@o  @@@@@@o  @@@@@@@@@@@@@o ",
".             ..           . @@@@@@@@o  @@@@@@o  oooooooooooooo ",
".......             ..       @@@@@@@@o  @@@@@@o .               ",
"     . @@@@@@@@@@@@o  @@@@o  @@@@@@@@o  @@@@@@o .       ..      ",
"@@@@o  @@@@@@@@@@@@o  @@@@o  @@@@@@@@o  @@@@@@o  @@@@@@o  @@@@@@",
"@@@@o  @@@@@@@@@@@@o  @@@@o  @@@@@@@@o  @@@@@@o  @@@@@@o  @@@@@@",
"@@@@o  @@@@@@@@@@@@o  @@@@o  ooooooooo  ooooooo  @@@@@@o  @@@@@@",
"@@@@o  @@@@@@@@@@@@o  @@@@o .         ..       . @@@@@@o  @@@@@@",
"ooooo  @@@@@@@@@@@@o  @@@@o .      ..          . @@@@@@o  oooooo",
"     . ooooooooooooo  @@@@o  @@@@@@  @@@@@@@@@@  @@@@@@o .      ",
".......             . @@@@o  @@@@@@  @@@@@@@@@@  ooooooo .......",
".                   . @@@@o  @@@@@@  @@@@@@@@@@ .       ........",
" @@@@@@@@@@@@@@@@@@o  @@@@o  @@@@@@  @@@@@@@@@@ .              .",
" @@@@@@@@@@@@@@@@@@o  @@@@o  @@@@@@  @@@@@@@@@@  @@@@@@@@@@@@@o ",
" @@@@@@@@@@@@@@@@@@o  @@@@o  @@@@@@  @@@@@@@@@@  @@@@@@@@@@@@@o ",
" @@@@@@@@@@@@@@@@@@o  @@@@o  @@@@@@  @@@@@@@@@@  @@@@@@@@@@@@@o ",
" @@@@@@@@@@@@@@@@@@o  ooooo  @@@@@@  @@@@@@@@@@  @@@@@@@@@@@@@o ",
" ooooooooooooooooooo         @@@@@@  @@@@@@@@@@  oooooooooooooo ",
".                   ........       ..          ..               ",
"         ..                  ..            ..             ..    ",
"@@@@@@@@o  @@@@@@@@@@@@@@@@@o  @@@@@@@@@@@o  @@@@@@@@@@@@o  @@@@",
"@@@@@@@@o  @@@@@@@@@@@@@@@@@o  @@@@@@@@@@@o  @@@@@@@@@@@@o  @@@@",
"@@@@@@@@o  @@@@@@@@@@@@@@@@@o  @@@@@@@@@@@o  @@@@@@@@@@@@o  @@@@",
"@@@@@@@@o  @@@@@@@@@@@@@@@@@o  @@@@@@@@@@@o  @@@@@@@@@@@@o  @@@@",
"@@@@@@@@o  @@@@@@@@@@@@@@@@@o  @@@@@@@@@@@o  @@@@@@@@@@@@o  @@@@",
"@@@@@@@@o  @@@@@@@@@@@@@@@@@o  @@@@@@@@@@@o  @@@@@@@@@@@@o  @@@@",
"@@@@@@@@o  @@@@@@@@@@@@@@@@@o  @@@@@@@@@@@o  @@@@@@@@@@@@o  @@@@",
"ooooooooo  oooooooooooooooooo  oooooooooooo  ooooooooooooo  oooo",
"         ..                  ..            ..             ..    ",
".                  ..                   ..                     .",
" @@@@@@@@@@@@@@@@@o  @@@@@@@@@@@@@@@@@@o  @@@@@@@@@@@@@@@@@@@@o ",
" @@@@@@@@@@@@@@@@@o  @@@@@@@@@@@@@@@@@@o  @@@@@@@@@@@@@@@@@@@@o ",
" oooooooooooooooooo  ooooooooooooooooooo  ooooooooooooooooooooo ",
".                  ..                   ..                     .",
"   oooo ooooooooo  XXXoooooooooo  oooooooooooo + oooo   ooo oooo",
"    oo  ooo  ooo    XXX ooo   o    ooooo  ooo  ++  oo +      oo ",
" ++      o    oo ++     XXX +   ++  ooo ++ oo ++++  o ++++++ o  ",
"+++++ ++   +O X  ++ +++ XX  ++  ++ +   +++    +++++  +++++++   +",
"OOOO  OOOOOOO  OOOO OOO    OOOOOOO OOOOOOOO  OOOOOOO OOOOOOO  OO"
};
