/* XPM */
static char *dfe09c21defa473ca83b5690b7df0322siMEcKAzTtJyBHg4[] = {
/* columns rows colors chars-per-pixel */
"64 64 61 1 ",
"  c #0F1924",
". c #131D26",
"X c #141F29",
"o c #152027",
"O c #162129",
"+ c #1B262D",
"@ c #1E292F",
"# c #1C2631",
"$ c #1F2931",
"% c #232D34",
"& c #242E38",
"* c #263136",
"= c #293437",
"- c #27313A",
"; c #2A343C",
": c #2D393C",
"> c #303B3F",
", c #2C3642",
"< c #2E3843",
"1 c #313C40",
"2 c #313C42",
"3 c #343F43",
"4 c #303A44",
"5 c #333D44",
"6 c #343E44",
"7 c #323C48",
"8 c #353E4A",
"9 c #353E4B",
"0 c #354043",
"q c #374247",
"w c #384247",
"e c #36404B",
"r c #36404D",
"t c #394349",
"y c #3A444A",
"u c #39434F",
"i c #3B454C",
"p c #3C464D",
"a c #3E484E",
"s c #3A4451",
"d c #3D4652",
"f c #3D4653",
"g c #3E4852",
"h c #3E4854",
"j c #404A51",
"k c #414B54",
"l c #414A57",
"z c #424C54",
"x c #434D56",
"c c #434C58",
"v c #444D58",
"b c #464F59",
"n c #46505A",
"m c #47515B",
"M c #46505D",
"N c #49525E",
"B c #4A5360",
"V c #4B5461",
"C c #4E5763",
"Z c #4D5664",
"A c #4F5865",
/* pixels */
"gbbbbbbbCr-q33333332;%bbbbbbbnZ&233333333>%5nbbbbbbCd%q33333332:",
"6yttttttj8;yyyyyyyyt:$tttttttyb&qyyyyyyyyq%;yttttttau-yyyyyyyyt2",
"6yyyyyytg8;yyyyyyyyy:$tyyyyyytz&qyyyyyyyyt%;yyyyyytpu-yyyyyyyyy3",
"2wqqwqqqa8;yyyyyyyyy:@qwqwqqqqz-qyyyyyyyyt%-wqqwqqqpu-yyyyyyyyy0",
"+@@@@$%%%&$--&%%%%%%$.@@@@@%%%;#%--%%%%%%%OO@@@@$%%%&#---%%%%%%%",
"***%X8dddddddd#%*********+%dddddddh4O*********%X4dddddddd$@*****",
"tty2@tpppppppn;2yttttttyt*-pppppppgk&yttttttty3@6pppppppb<2ytttt",
"yyy2@qyttttttz;2yyyyyyyyt*%yttttttih&yyyyyyyyy6@5yttttttk<2yyyyy",
"yyy2@qyyyyyytz;5yyyyyyyyy*%yyyyyyyih&yyyyyyyyyq@5yyyyyytz<2yyyyy",
"222;O*;;;;;;;2#-2<<<22222%+;;;;;;;;<+<2<<<2222;O%;;;;;;;2$%2<<<<",
"O@@@+@@@@.#<<<,<<<<<<X+@@@+@@@+.;<<<,<<<<<%X@@@+@@@@X+<<<<<<<<<<",
"*qqqqqqq0@<zkkkkjjjzB$:qqqqqqq:@dkkkkkjjjNr%0qqqqqqq%;zkkkkjjjzA",
":tyyyyyyw%;ytttttttyc%2yyyyyyy>@qttttttttg8%tyyyyyyt%-yttttttttb",
":tyyyyyyw%;yyyyyyyyyz%2yyyyyyy2@eyyyyyyytg8%tyyyyyyt%-yyyyyyyyyb",
"%>222222>@%222222222g#=2222222;O>22222222t7@>2222222%%222222222j",
"+%%%O$%%%+#%%%O$%%%%-#$%%$+%%%$+$%%+O%%%%%&+%%%+@%%%##%%%O@%%%%-",
"zzzg$sczzzzzzM&uczzzzzzzc4-zzzzczzbs&kzzzzzczzk%rczzzzzzM-7czzzz",
"yyy2@qyyyyyytb;5yyyyyyyyy*-yyyyyyyph&yyyyyyyyy6@6yyyyyytz<2yyyyy",
"yyy2@qyyyyyytz;2yyyyyyyyt*%yyyyyytih&yyyyyyyyy6@5yyyyyytk<2yyyyy",
"yyy2+6yyyyyyyk-2yyyyyyyyy*%yyyyyyyps%yyyyyyyyyq+2yyyyyyyj,2yyyyy",
"---%.#-------%.@---------+.%-------+.%--------%.+-------%.+-----",
"8suuuuuud;@*%%%%%%%%@#uuuuuuuss#%%%%%%%%%%+,suuuuuud<+*%%%%%%%%%",
"epppppppbr;ytttttttw:$pppppppgN&qttttttttq%;appppppbs-ytttttttt2",
"6yttttttg8;yyyyyyyyy:$ttttttttz&qyyyyyyyyt%;yttttttpu-yyyyyytty3",
"6yyyyyytg8;yyyyyyyyy:$tyyyyyyyz-qyyytyyyyt%;yyyyyyyas-yyyyyyyyy0",
"*:::::;;2<%222222222;O;::::;;;e%<222522222@$:::::;;:4%222222222:",
"++++.&;;,,;,,;XO@@@@@O+++X+;;;,;,,<%X@@@@@+++++.%;;,,;,,,OO@@@@@",
"qqq:@dzzzzzzzN-:q0q0qqqq3%-zzzzzzzbk%qqq03qqqq>+uzzzzzzzN,;qqqqq",
"yyy2@qtttttttz;5yyyyyyyyt*%yttttttyd&yyyyyyyyy6@5tttttttk<2yyyyy",
"yyy2@qyyyyyytz;2yyyyyyyyt*%yyyyyyyph&yyyyyyyyy6@6yyyyyytk<2yyyyy",
"ttt2+2q66qq33g-2ttttttttt*%q66qq63qi%ttttttttt3+:q66qq33p,:ttttt",
"#$$@.O+++O+%%%+%&&&&%#$$$O.++++O$%%%+%&&&&%@$$@.O+++O+%%%#$&&&&&",
"@::::::::+,zkkkkkkkcc+*:::::::*+dkkkkkkkkM4+::::::::@-kkkkkkkkkB",
":tyyyyyyw%;yyyyyyyypb%2yyyyyyy2@tyyyyyyyyz8%wyyyyyyt%-yyyyyyyyyN",
":tyyyyyyt%;yyyyyyyyyz%2yyyyyyy2@qyyyyyyytg8%tyyyyyyt%-yyyyyyyytb",
";qttttttq%;yttttttttz%>ttttttt>@qttttttttg8%qttttttw%-yttttttttb",
"O%%%%%%%%OO%%%%%%%%%<X@%%%%%%%$.%%%%%%%%%-&.%%%%%%%%OO%%%%%%%%%<",
"88r8+<r88888r8+,r888r888r;#8888888r;+8r88rr8888#,r88888rr#;r888r",
"gggw$iggggggaN,egggggggga;-ggggggajk-gggggggggy$eggggggan<5ggggg",
"tty2@qtttttttz;2ytttttttt*%yttttttyh&ytttttttt3@5yttttttk<2ytttt",
"yyy2@qyyyyyytz;5yyyyyyyyy**yyyyyyyph&yyyyyyyyyq@6yyyyyytz<2yyyyy",
"666;.-66666666+;666666666%O26666666;+266666666:X-66666668#-66666",
"&;;-%&;;;$O@@+oO@@@@++;;;&&-;;-++@@OO+@@@@O%;;-&&;;;%O@@+OO@@@@@",
"dzzzzzzzV8*333333332=%kzzzzzzbV&233333333>$4bzzzzzzNs%333333332:",
"6tttttttg8;yyyyyyyyy:$ttttttttz&qyyyyyyyyw%;yttttttpu-yyyyyyyyy3",
"6yyyyyytg8;yyyyyyyty:@tyyyyyyyz&qyyyyyyyyw%;yyyyyyypu-yyyyyyyyy3",
"2qqqqqqqp8;yyyyyyyyy:@6qqqqqqqk&qytyyyyyyw%-qqqqqqqyu-yyyyyyyyy3",
"O@@@+$%%%&$&&%$%%%%%@.+@@++%%%-#%&&%$%%%%%OX@@@+@%%%&#&&%$%%%%%$",
";;;*Oukkkkkkkk#%;;;;;;;;;@%kkkkkkkk8+;;;;;;;;;*O8kkkkkkkc%%;;;;;",
"yyy2@eyyyyyyyb;2yyyyyyyyt*-pyyyyyypk&yyyyyyyyy3@6yyyyyyyb<2yyyyy",
"yyy2@qyyyyyytz;2yyyyyyyyt*%yyyyyytih&yyyyyyyyy6@5yyyyyytk<2yyyyy",
"yyy2@qyttttttz;5yyyyyyyyy*%yttttttyh&yyyyyyyyyq@2yttttttk<2yyyyy",
";;;-X%*******;+%;;;;;;;;;@O********;+;;;;;;;;;;O%*******;#%;;;;;",
"O%%%@$$$@X%7774777774X@%%$@$$$@.<777477778&X%%%@$$$$O#7774777778",
"=qwwwwwwq%<jjjjjjjjkB$>wwwwwww:$pjjjjjjjgnr%qwwwwwwq%;jjjjjjjjjZ",
":tyyyyyyt%;ytttttttyz%2yyyyyyy2@qttttttttg8%tyyyyyyt%-yttttttttb",
":tyyyyyyw%;yyyyyyyyyz%2yyyyyyy2@eyyyyyyytg8%tyyyyyyt%-yyyyyyyyyb",
"@:>>2>>>:+%>>>2>>>>>d+*>>>2>>>;O:>>>2>>>>q4+:>>2>>>:@$>>>2>>>>>g",
"$&&%O%&&&$%&&%X$&&&&-$%&&$+&&&%$%&&#O%&&&&&$&&&+$&&&%$&&%O#&&&&-",
"bzzg%dbzzbzzzN&ubzzzcbzzb2-bczzbzzbd&zzzzzzbzzk%ubzzcbzzN;8bczzz",
"ttt2@qtttttttz;2ytttttttt*%yttttttih&ytttttttt3@5yttttttz<2ytttt",
"yyy2@qyyyyyytz;2yyyyyyyyt*%ytyyyytih&ytyyyyyyy6@5yyyyyytk<2yyyyy",
"yyy2+5yyyyyyyj&2yyyyyyyyy*%yyyyyyypu%tyyyyyyyy6+2yyyyyyyj;<yyyyy",
"%%%$ +&%%%%%%% +%%%%%%%%%O %%%%%%%%O.%%%%%%%&%% O%%%%%%%% O%%%%%"
};
